<svg xmlns="http://www.w3.org/2000/svg" viewBox="0 0 400 120" fill="none">
  <defs>
    <linearGradient id="flame" x1="0" y1="1" x2="0" y2="0">
      <stop offset="0%" stop-color="#c9a84c"/>
      <stop offset="100%" stop-color="#e8d5a0"/>
    </linearGradient>
  </defs>
  <!-- Flame Icon -->
  <path d="M45 90 C45 60, 30 50, 35 30 C38 40, 50 35, 48 20 C55 35, 65 40, 65 30 C70 50, 55 60, 55 90 Z" fill="url(#flame)"/>
  <path d="M48 90 C48 75, 42 68, 45 55 C47 62, 53 60, 52 50 C55 60, 58 65, 58 90 Z" fill="#1a1a1a"/>
  <!-- Text -->
  <text x="85" y="55" font-family="'Playfair Display', Georgia, serif" font-size="38" font-weight="700" fill="#f5f0e8" letter-spacing="3">EMBER</text>
  <text x="85" y="57" font-family="'Playfair Display', Georgia, serif" font-size="38" font-weight="700" fill="#f5f0e8" letter-spacing="3" opacity="0"> </text>
  <text x="262" y="55" font-family="'Lato', sans-serif" font-size="16" fill="#c9a84c" letter-spacing="6">&amp;</text>
  <text x="290" y="55" font-family="'Playfair Display', Georgia, serif" font-size="38" font-weight="700" fill="#f5f0e8" letter-spacing="3">OAK</text>
  <!-- Tagline -->
  <text x="85" y="80" font-family="'Lato', sans-serif" font-size="11" fill="#c9a84c" letter-spacing="8">FINE DINING</text>
  <!-- Decorative line -->
  <line x1="85" y1="62" x2="380" y2="62" stroke="#c9a84c" stroke-width="0.5" opacity="0.5"/>
</svg>
