<svg xmlns="http://www.w3.org/2000/svg" viewBox="0 0 400 120" fill="none">
  <!-- Circular leaf arrangement -->
  <circle cx="50" cy="55" r="35" fill="none" stroke="#2d6a4f" stroke-width="1.5"/>
  <!-- Leaves -->
  <path d="M50 25 Q60 40, 50 55 Q40 40, 50 25 Z" fill="#2d6a4f"/>
  <path d="M75 40 Q65 50, 50 55 Q65 45, 75 40 Z" fill="#95d5b2"/>
  <path d="M75 70 Q65 60, 50 55 Q65 65, 75 70 Z" fill="#2d6a4f"/>
  <path d="M50 85 Q40 70, 50 55 Q60 70, 50 85 Z" fill="#95d5b2"/>
  <path d="M25 70 Q35 60, 50 55 Q35 65, 25 70 Z" fill="#2d6a4f"/>
  <path d="M25 40 Q35 50, 50 55 Q35 45, 25 40 Z" fill="#95d5b2"/>
  <!-- Text -->
  <text x="100" y="48" font-family="'Montserrat', sans-serif" font-size="28" font-weight="700" fill="#2d6a4f" letter-spacing="2">VERDE</text>
  <text x="100" y="78" font-family="'Montserrat', sans-serif" font-size="12" fill="#95d5b2" letter-spacing="6">LANDSCAPING</text>
</svg>
