<svg xmlns="http://www.w3.org/2000/svg" viewBox="0 0 400 120" fill="none">
  <!-- Floral element -->
  <circle cx="50" cy="50" r="8" fill="#d4a5a5"/>
  <ellipse cx="50" cy="30" rx="8" ry="14" fill="#d4a5a5" opacity="0.6"/>
  <ellipse cx="50" cy="70" rx="8" ry="14" fill="#d4a5a5" opacity="0.6"/>
  <ellipse cx="30" cy="50" rx="14" ry="8" fill="#d4a5a5" opacity="0.6"/>
  <ellipse cx="70" cy="50" rx="14" ry="8" fill="#d4a5a5" opacity="0.6"/>
  <ellipse cx="36" cy="36" rx="10" ry="7" fill="#d4a5a5" opacity="0.4" transform="rotate(-45 36 36)"/>
  <ellipse cx="64" cy="36" rx="10" ry="7" fill="#d4a5a5" opacity="0.4" transform="rotate(45 64 36)"/>
  <ellipse cx="36" cy="64" rx="10" ry="7" fill="#d4a5a5" opacity="0.4" transform="rotate(45 36 64)"/>
  <ellipse cx="64" cy="64" rx="10" ry="7" fill="#d4a5a5" opacity="0.4" transform="rotate(-45 64 64)"/>
  <!-- Center -->
  <circle cx="50" cy="50" r="5" fill="#3d3d3d"/>
  <!-- Stem -->
  <line x1="50" y1="65" x2="50" y2="100" stroke="#3d3d3d" stroke-width="1.5"/>
  <path d="M50 85 Q40 80, 38 70" fill="none" stroke="#3d3d3d" stroke-width="1"/>
  <!-- Text -->
  <text x="100" y="52" font-family="'Dancing Script', cursive" font-size="36" fill="#3d3d3d">Bloom</text>
  <text x="100" y="80" font-family="'Dancing Script', cursive" font-size="16" fill="#d4a5a5" letter-spacing="4">Boutique</text>
</svg>
