<svg xmlns="http://www.w3.org/2000/svg" viewBox="0 0 400 120" fill="none">
  <!-- Vintage badge/crest -->
  <ellipse cx="50" cy="55" rx="38" ry="42" fill="none" stroke="#8b4513" stroke-width="2.5"/>
  <ellipse cx="50" cy="55" rx="32" ry="36" fill="none" stroke="#daa520" stroke-width="1"/>
  <!-- Hop/wheat inside -->
  <path d="M40 40 Q45 35, 50 40 Q55 35, 60 40" fill="none" stroke="#daa520" stroke-width="1.5"/>
  <path d="M38 50 Q44 44, 50 50 Q56 44, 62 50" fill="none" stroke="#daa520" stroke-width="1.5"/>
  <!-- Wheat stalks -->
  <line x1="50" y1="52" x2="50" y2="80" stroke="#8b4513" stroke-width="1.5"/>
  <line x1="45" y1="60" x2="50" y2="55" stroke="#daa520" stroke-width="1"/>
  <line x1="55" y1="60" x2="50" y2="55" stroke="#daa520" stroke-width="1"/>
  <line x1="43" y1="68" x2="50" y2="63" stroke="#daa520" stroke-width="1"/>
  <line x1="57" y1="68" x2="50" y2="63" stroke="#daa520" stroke-width="1"/>
  <!-- Est banner -->
  <text x="50" y="95" font-family="'Bitter', serif" font-size="8" fill="#8b4513" text-anchor="middle" letter-spacing="2">EST. 2024</text>
  <!-- Text -->
  <text x="100" y="42" font-family="'Bitter', Georgia, serif" font-size="24" font-weight="700" fill="#1a1a1a" letter-spacing="2">WILDCRAFT</text>
  <line x1="100" y1="50" x2="320" y2="50" stroke="#daa520" stroke-width="1.5"/>
  <text x="100" y="72" font-family="'Bitter', serif" font-size="16" fill="#8b4513" letter-spacing="6">BREWING</text>
  <text x="100" y="92" font-family="'Bitter', serif" font-size="9" fill="#888" letter-spacing="3">SMALL BATCH • BOLD FLAVOR</text>
</svg>
