<svg xmlns="http://www.w3.org/2000/svg" viewBox="0 0 400 120" fill="none">
  <defs>
    <linearGradient id="cloudgrad" x1="0" y1="0" x2="1" y2="1">
      <stop offset="0%" stop-color="#5b21b6"/>
      <stop offset="100%" stop-color="#06b6d4"/>
    </linearGradient>
  </defs>
  <!-- Abstract flowing cloud -->
  <path d="M20 70 Q20 50, 35 48 Q32 35, 48 32 Q55 22, 68 32 Q78 28, 82 40 Q92 42, 90 55 Q95 65, 85 70 Z" fill="url(#cloudgrad)" opacity="0.9"/>
  <!-- Inner highlight -->
  <path d="M35 65 Q35 52, 45 50 Q43 42, 53 40 Q58 34, 66 40 Q72 38, 75 46 Q80 48, 78 56 Q82 62, 76 65 Z" fill="#ffffff" opacity="0.15"/>
  <!-- Connection dots -->
  <circle cx="45" cy="52" r="2" fill="#ffffff" opacity="0.6"/>
  <circle cx="60" cy="45" r="2" fill="#ffffff" opacity="0.6"/>
  <circle cx="72" cy="52" r="2" fill="#ffffff" opacity="0.6"/>
  <line x1="45" y1="52" x2="60" y2="45" stroke="#ffffff" stroke-width="0.8" opacity="0.4"/>
  <line x1="60" y1="45" x2="72" y2="52" stroke="#ffffff" stroke-width="0.8" opacity="0.4"/>
  <!-- Text -->
  <text x="108" y="50" font-family="'Outfit', sans-serif" font-size="30" font-weight="700" fill="#5b21b6" letter-spacing="1">Nimbus</text>
  <text x="108" y="78" font-family="'Outfit', sans-serif" font-size="13" fill="#06b6d4" letter-spacing="5">CLOUD SERVICES</text>
</svg>
